<?xml version="1.0" encoding="UTF-8" standalone="no"?>
<!-- Created with Inkscape (http://www.inkscape.org/) -->

<svg
   width="60"
   height="60"
   viewBox="0 0 15.875 15.875"
   version="1.1"
   id="svg1"
   inkscape:version="1.3 (0e150ed6c4, 2023-07-21)"
   sodipodi:docname="gates.svg"
   inkscape:export-filename="x.png"
   inkscape:export-xdpi="200"
   inkscape:export-ydpi="200"
   xmlns:inkscape="http://www.inkscape.org/namespaces/inkscape"
   xmlns:sodipodi="http://sodipodi.sourceforge.net/DTD/sodipodi-0.dtd"
   xmlns="http://www.w3.org/2000/svg"
   xmlns:svg="http://www.w3.org/2000/svg">
  <sodipodi:namedview
     id="namedview1"
     pagecolor="#ffffff"
     bordercolor="#999999"
     borderopacity="1"
     inkscape:showpageshadow="0"
     inkscape:pageopacity="0"
     inkscape:pagecheckerboard="0"
     inkscape:deskcolor="#d1d1d1"
     inkscape:document-units="mm"
     inkscape:zoom="8"
     inkscape:cx="16.0625"
     inkscape:cy="28.6875"
     inkscape:window-width="1920"
     inkscape:window-height="1009"
     inkscape:window-x="-8"
     inkscape:window-y="-8"
     inkscape:window-maximized="1"
     inkscape:current-layer="g47"
     inkscape:export-bgcolor="#ffffffff" />
  <defs
     id="defs1">
    <inkscape:path-effect
       effect="bspline"
       id="path-effect47"
       is_visible="true"
       lpeversion="1.3"
       weight="33.333333"
       steps="2"
       helper_size="0"
       apply_no_weight="true"
       apply_with_weight="true"
       only_selected="false"
       uniform="false" />
    <inkscape:path-effect
       effect="bspline"
       id="path-effect45"
       is_visible="true"
       lpeversion="1.3"
       weight="33.333333"
       steps="2"
       helper_size="0"
       apply_no_weight="true"
       apply_with_weight="true"
       only_selected="false"
       uniform="false" />
    <inkscape:path-effect
       effect="bspline"
       id="path-effect44"
       is_visible="true"
       lpeversion="1.3"
       weight="33.333333"
       steps="2"
       helper_size="0"
       apply_no_weight="true"
       apply_with_weight="true"
       only_selected="false"
       uniform="false" />
    <inkscape:path-effect
       effect="bspline"
       id="path-effect42"
       is_visible="true"
       lpeversion="1.3"
       weight="33.333333"
       steps="2"
       helper_size="0"
       apply_no_weight="true"
       apply_with_weight="true"
       only_selected="false"
       uniform="false" />
    <inkscape:path-effect
       effect="bspline"
       id="path-effect41"
       is_visible="true"
       lpeversion="1.3"
       weight="33.333333"
       steps="2"
       helper_size="0"
       apply_no_weight="true"
       apply_with_weight="true"
       only_selected="false"
       uniform="false" />
    <inkscape:path-effect
       effect="bspline"
       id="path-effect39"
       is_visible="true"
       lpeversion="1.3"
       weight="33.333333"
       steps="2"
       helper_size="0"
       apply_no_weight="true"
       apply_with_weight="true"
       only_selected="false"
       uniform="false" />
    <inkscape:path-effect
       effect="bspline"
       id="path-effect38"
       is_visible="true"
       lpeversion="1.3"
       weight="33.333333"
       steps="2"
       helper_size="0"
       apply_no_weight="true"
       apply_with_weight="true"
       only_selected="false"
       uniform="false" />
    <inkscape:path-effect
       effect="bspline"
       id="path-effect36"
       is_visible="true"
       lpeversion="1.3"
       weight="33.333333"
       steps="2"
       helper_size="0"
       apply_no_weight="true"
       apply_with_weight="true"
       only_selected="false"
       uniform="false" />
    <inkscape:path-effect
       effect="bspline"
       id="path-effect35"
       is_visible="true"
       lpeversion="1.3"
       weight="33.333333"
       steps="2"
       helper_size="0"
       apply_no_weight="true"
       apply_with_weight="true"
       only_selected="false"
       uniform="false" />
    <inkscape:path-effect
       effect="bspline"
       id="path-effect33"
       is_visible="true"
       lpeversion="1.3"
       weight="33.333333"
       steps="2"
       helper_size="0"
       apply_no_weight="true"
       apply_with_weight="true"
       only_selected="false"
       uniform="false" />
    <inkscape:path-effect
       effect="bspline"
       id="path-effect32"
       is_visible="true"
       lpeversion="1.3"
       weight="33.333333"
       steps="2"
       helper_size="0"
       apply_no_weight="true"
       apply_with_weight="true"
       only_selected="false"
       uniform="false" />
    <inkscape:path-effect
       effect="bspline"
       id="path-effect2"
       is_visible="true"
       lpeversion="1.3"
       weight="33.333333"
       steps="2"
       helper_size="0"
       apply_no_weight="true"
       apply_with_weight="true"
       only_selected="false"
       uniform="false" />
    <inkscape:path-effect
       effect="bspline"
       id="path-effect1"
       is_visible="true"
       lpeversion="1.3"
       weight="33.333333"
       steps="2"
       helper_size="0"
       apply_no_weight="true"
       apply_with_weight="true"
       only_selected="false"
       uniform="false" />
  </defs>
  <g
     inkscape:label="Warstwa 1"
     inkscape:groupmode="layer"
     id="layer1">
    <path
       style="display:none;fill:none;fill-opacity:0.831373;stroke:#000000;stroke-width:0.5;stroke-dasharray:none"
       d="m 0,27.865813 c 5.2916667,0 10.583333,0 15.875,0"
       id="path1"
       inkscape:path-effect="#path-effect2"
       inkscape:original-d="m 0,27.865813 c 5.2916667,0 10.583333,0 15.875,0"
       sodipodi:nodetypes="cc"
       transform="translate(0,-19.928313)"
       inkscape:label="-" />
    <path
       style="display:none;fill:none;fill-opacity:0.831373;stroke:#000000;stroke-width:0.5;stroke-dasharray:none"
       d="m 0,27.865813 c 5.2916667,0 10.583333,0 15.875,0"
       id="path34"
       inkscape:path-effect="#path-effect35"
       inkscape:original-d="m 0,27.865813 c 5.2916667,0 10.583333,0 15.875,0"
       sodipodi:nodetypes="cc"
       transform="rotate(90,17.901657,17.901657)"
       inkscape:label="|" />
    <rect
       style="display:none;fill:#ffffff;fill-opacity:1;stroke:#000000;stroke-width:0.5;stroke-dasharray:none"
       id="rect2"
       width="10.109054"
       height="7.6729164"
       x="2.8829732"
       y="4.1010418"
       inkscape:label="Rect" />
    <g
       id="g33"
       inkscape:label="OX"
       style="display:none">
      <circle
         style="fill:#ffffff;fill-opacity:1;stroke:#000000;stroke-width:0.499999;stroke-dasharray:none"
         id="path31"
         cx="7.9375"
         cy="7.9375"
         r="2.9245193" />
      <path
         style="fill:#ffffff;fill-opacity:1;stroke:#000000;stroke-width:0.499999;stroke-dasharray:none"
         d="m 7.9374999,5.0129807 c 0,1.9496794 0,3.899359 0,5.8490383"
         id="path32"
         inkscape:path-effect="#path-effect32"
         inkscape:original-d="m 7.9374999,5.0129807 c 0,1.9496794 0,3.899359 0,5.8490383" />
      <path
         style="fill:#ffffff;fill-opacity:1;stroke:#000000;stroke-width:0.499999;stroke-dasharray:none"
         d="m 5.0129807,7.9374999 c 1.9496794,0 3.899359,0 5.8490383,0"
         id="path33"
         inkscape:path-effect="#path-effect33"
         inkscape:original-d="m 5.0129807,7.9374999 c 1.9496794,0 3.899359,0 5.8490383,0" />
    </g>
    <circle
       id="path35"
       style="display:none;fill:#000000;stroke:none;stroke-width:0.499999;stroke-dasharray:none"
       cx="7.9375"
       cy="7.9375"
       r="1.4048103" />
    <path
       style="display:none;fill:#ffffff;fill-opacity:1;stroke:#000000;stroke-width:0.499999;stroke-dasharray:none"
       d="m 7.9374999,7.9374999 c 0,-2.6458333 0,-5.2916666 0,-7.9374999"
       id="path36"
       inkscape:path-effect="#path-effect36"
       inkscape:original-d="m 7.9374999,7.9374999 c 0,-2.6458333 0,-5.2916666 0,-7.9374999"
       inkscape:label="|u" />
    <path
       style="display:none;fill:#ffffff;fill-opacity:1;stroke:#000000;stroke-width:0.499999;stroke-dasharray:none"
       d="m 7.9374999,7.9374999 c 0,-2.6458333 0,-5.2916666 0,-7.9374999"
       id="path37"
       inkscape:path-effect="#path-effect38"
       inkscape:original-d="m 7.9374999,7.9374999 c 0,-2.6458333 0,-5.2916666 0,-7.9374999"
       transform="translate(0,7.9374999)"
       inkscape:label="|d" />
    <g
       id="g47"
       transform="translate(4.9195964,4.8534505)"
       inkscape:label="X"
       style="display:none">
      <path
         style="fill:#ffffff;fill-opacity:1;stroke:#000000;stroke-width:0.499999;stroke-dasharray:none"
         d="M 1.0583333,1.1244792 C 2.3647135,2.4308593 3.6710937,3.7372395 4.9774739,5.0436197"
         id="path44"
         inkscape:path-effect="#path-effect45"
         inkscape:original-d="M 1.0583333,1.1244792 C 2.3647135,2.4308593 3.6710937,3.7372395 4.9774739,5.0436197" />
      <path
         style="fill:#ffffff;fill-opacity:1;stroke:#000000;stroke-width:0.499999;stroke-dasharray:none"
         d="M 1.0583333,1.1244792 C 2.3647135,2.4308593 3.6710937,3.7372395 4.9774739,5.0436197"
         id="path45"
         inkscape:path-effect="#path-effect47"
         inkscape:original-d="M 1.0583333,1.1244792 C 2.3647135,2.4308593 3.6710937,3.7372395 4.9774739,5.0436197"
         transform="matrix(-1,0,0,1,6.0358072,0)" />
    </g>
  </g>
  <g
     inkscape:groupmode="layer"
     id="layer2"
     inkscape:label="Letters"
     style="display:inline">
    <g
       inkscape:label="Z"
       transform="translate(6.2810964,6.2094385)"
       id="g28"
       style="display:none">
      <g
         fill="#000000"
         fill-opacity="1"
         id="g27"
         transform="matrix(0.352778,0,0,0.352778,-0.989718,-0.704894)">
        <g
           id="g26"
           transform="translate(1.993,11.795)">
          <path
             d="m 10.046875,-9.359375 c 0.07813,-0.09375 0.15625,-0.171875 0.15625,-0.328125 0,-0.09375 -0.01563,-0.109375 -0.34375,-0.109375 H 3.9375 c -0.34375,0 -0.359375,0.015625 -0.4375,0.265625 L 2.71875,-6.9375 c -0.046875,0.140625 -0.046875,0.171875 -0.046875,0.203125 0,0.046875 0.046875,0.140625 0.140625,0.140625 0.109375,0 0.140625,-0.0625 0.203125,-0.25 0.53125,-1.546875 1.234375,-2.53125 3.5,-2.53125 h 2.34375 L 1,-0.484375 c -0.125,0.15625 -0.1875,0.21875 -0.1875,0.375 C 0.8125,0 0.890625,0 1.15625,0 h 6.125 C 7.609375,0 7.625,-0.015625 7.71875,-0.265625 l 1,-3.171875 c 0.015625,-0.046875 0.046875,-0.140625 0.046875,-0.203125 0,-0.078125 -0.0625,-0.140625 -0.140625,-0.140625 -0.125,0 -0.140625,0.015625 -0.25,0.375 C 7.78125,-1.5625 7.140625,-0.4375 4.640625,-0.4375 h -2.46875 z m 0,0"
             id="path25" />
        </g>
      </g>
    </g>
    <g
       inkscape:label="Y"
       transform="translate(6.1295124,6.2094385)"
       id="g25"
       style="display:none">
      <g
         fill="#000000"
         fill-opacity="1"
         id="g24"
         transform="matrix(0.352778,0,0,0.352778,-0.868451,-0.704894)">
        <g
           id="g23"
           transform="translate(1.993,11.795)">
          <path
             d="M 8.4375,-8.203125 8.765625,-8.53125 c 0.625,-0.65625 1.15625,-0.8125 1.65625,-0.84375 0.15625,-0.015625 0.296875,-0.03125 0.296875,-0.28125 0,-0.140625 -0.140625,-0.140625 -0.171875,-0.140625 -0.171875,0 -0.359375,0.03125 -0.53125,0.03125 h -0.59375 c -0.40625,0 -0.859375,-0.03125 -1.265625,-0.03125 -0.09375,0 -0.25,0 -0.25,0.265625 0,0.140625 0.140625,0.15625 0.1875,0.15625 0.421875,0.015625 0.421875,0.234375 0.421875,0.328125 0,0.15625 -0.109375,0.375 -0.390625,0.703125 l -3.421875,3.90625 -1.625,-4.359375 C 3,-9 3,-9.015625 3,-9.046875 3,-9.359375 3.578125,-9.375 3.765625,-9.375 c 0.171875,0 0.328125,0 0.328125,-0.265625 0,-0.15625 -0.140625,-0.15625 -0.21875,-0.15625 -0.25,0 -0.53125,0.03125 -0.78125,0.03125 H 1.5 c -0.25,0 -0.53125,-0.03125 -0.765625,-0.03125 -0.109375,0 -0.265625,0 -0.265625,0.265625 0,0.15625 0.140625,0.15625 0.34375,0.15625 0.703125,0 0.84375,0.125 0.96875,0.453125 l 1.78125,4.78125 c 0.015625,0.03125 0.046875,0.203125 0.046875,0.234375 0,0.046875 -0.703125,2.875 -0.734375,3.015625 C 2.75,-0.5 2.609375,-0.4375 1.6875,-0.421875 c -0.234375,0 -0.359375,0 -0.359375,0.28125 C 1.328125,0 1.484375,0 1.53125,0 1.796875,0 2.09375,-0.03125 2.359375,-0.03125 H 4.0625 C 4.3125,-0.03125 4.625,0 4.875,0 c 0.109375,0 0.28125,0 0.28125,-0.265625 0,-0.15625 -0.109375,-0.15625 -0.34375,-0.15625 -0.890625,0 -0.890625,-0.09375 -0.890625,-0.25 0,-0.109375 0.109375,-0.5625 0.1875,-0.84375 L 4.625,-3.578125 c 0.078125,-0.3125 0.078125,-0.34375 0.203125,-0.484375 z m 0,0"
             id="path22" />
        </g>
      </g>
    </g>
    <g
       inkscape:label="S"
       transform="translate(6.4602413,6.1047074)"
       id="g31"
       style="display:none">
      <g
         fill="#000000"
         fill-opacity="1"
         id="g30"
         transform="matrix(0.352778,0,0,0.352778,-0.962157,-0.600163)">
        <g
           id="g29"
           transform="translate(1.993,11.795)">
          <path
             d="m 9.109375,-9.96875 c 0,-0.125 -0.09375,-0.125 -0.125,-0.125 -0.0625,0 -0.078125,0.01563 -0.25,0.21875 C 8.65625,-9.765625 8.0625,-9.015625 8.046875,-9.015625 7.578125,-9.9375 6.625,-10.09375 6.03125,-10.09375 c -1.828125,0 -3.484375,1.65625 -3.484375,3.28125 0,1.078125 0.65625,1.703125 1.359375,1.953125 0.15625,0.046875 1,0.28125 1.421875,0.390625 0.734375,0.1875 0.921875,0.25 1.234375,0.5625 0.046875,0.078125 0.34375,0.40625 0.34375,1.078125 0,1.34375 -1.234375,2.71875 -2.671875,2.71875 -1.171875,0 -2.484375,-0.5 -2.484375,-2.109375 0,-0.28125 0.0625,-0.625 0.09375,-0.765625 0,-0.046875 0.015625,-0.109375 0.015625,-0.140625 0,-0.0625 -0.015625,-0.125 -0.140625,-0.125 -0.125,0 -0.140625,0.015625 -0.203125,0.265625 l -0.734375,2.9375 c 0,0.015625 -0.046875,0.203125 -0.046875,0.21875 0,0.125 0.109375,0.125 0.140625,0.125 0.0625,0 0.078125,-0.015625 0.25,-0.21875 L 1.78125,-0.78125 C 2.125,-0.265625 2.875,0.296875 4.203125,0.296875 6.046875,0.296875 7.75,-1.484375 7.75,-3.28125 7.75,-3.890625 7.609375,-4.421875 7.0625,-4.953125 6.75,-5.25 6.5,-5.328125 5.171875,-5.671875 4.21875,-5.921875 4.09375,-5.96875 3.828125,-6.203125 3.578125,-6.4375 3.40625,-6.78125 3.40625,-7.265625 c 0,-1.21875 1.21875,-2.4375 2.578125,-2.4375 1.40625,0 2.0625,0.859375 2.0625,2.21875 0,0.375 -0.078125,0.75 -0.078125,0.8125 0,0.125 0.125,0.125 0.171875,0.125 0.125,0 0.140625,-0.03125 0.1875,-0.265625 z m 0,0"
             id="path28" />
        </g>
      </g>
    </g>
    <g
       inkscape:label="H"
       transform="translate(5.8814655,6.2094385)"
       id="g19"
       style="display:none">
      <g
         fill="#000000"
         fill-opacity="1"
         id="g2"
         transform="matrix(0.352778,0,0,0.352778,-0.934597,-0.704894)">
        <g
           id="use1"
           transform="translate(1.993,11.795)">
          <path
             d="m 10.734375,-8.75 c 0.125,-0.484375 0.15625,-0.625 1.171875,-0.625 0.25,0 0.40625,0 0.40625,-0.265625 0,-0.15625 -0.140625,-0.15625 -0.21875,-0.15625 -0.265625,0 -0.5625,0.03125 -0.828125,0.03125 H 9.5625 c -0.265625,0 -0.5625,-0.03125 -0.84375,-0.03125 -0.09375,0 -0.265625,0 -0.265625,0.265625 0,0.15625 0.09375,0.15625 0.375,0.15625 0.859375,0 0.859375,0.109375 0.859375,0.265625 0,0.03125 0,0.109375 -0.0625,0.328125 L 8.75,-5.3125 H 4.421875 L 5.28125,-8.75 c 0.125,-0.484375 0.15625,-0.625 1.171875,-0.625 0.265625,0 0.40625,0 0.40625,-0.265625 0,-0.15625 -0.125,-0.15625 -0.21875,-0.15625 -0.25,0 -0.5625,0.03125 -0.828125,0.03125 H 4.109375 c -0.265625,0 -0.5625,-0.03125 -0.84375,-0.03125 -0.09375,0 -0.265625,0 -0.265625,0.265625 0,0.15625 0.09375,0.15625 0.375,0.15625 0.859375,0 0.859375,0.109375 0.859375,0.265625 0,0.03125 0,0.109375 -0.0625,0.328125 l -1.9375,7.71875 c -0.125,0.5 -0.15625,0.640625 -1.140625,0.640625 -0.328125,0 -0.4375,0 -0.4375,0.28125 C 0.65625,0 0.8125,0 0.859375,0 1.125,0 1.421875,-0.03125 1.6875,-0.03125 H 3.390625 C 3.65625,-0.03125 3.953125,0 4.234375,0 4.34375,0 4.5,0 4.5,-0.265625 c 0,-0.15625 -0.125,-0.15625 -0.34375,-0.15625 -0.875,0 -0.875,-0.109375 -0.875,-0.25 0,-0.015625 0,-0.109375 0.03125,-0.234375 L 4.296875,-4.890625 H 8.65625 c -0.25,0.953125 -0.984375,3.9375 -1.015625,4.03125 -0.15625,0.421875 -0.375,0.421875 -1.234375,0.4375 -0.171875,0 -0.296875,0 -0.296875,0.28125 C 6.109375,0 6.265625,0 6.3125,0 6.5625,0 6.875,-0.03125 7.140625,-0.03125 h 1.6875 C 9.109375,-0.03125 9.40625,0 9.6875,0 c 0.109375,0 0.265625,0 0.265625,-0.265625 0,-0.15625 -0.125,-0.15625 -0.34375,-0.15625 -0.875,0 -0.875,-0.109375 -0.875,-0.25 0,-0.015625 0,-0.109375 0.03125,-0.234375 z m 0,0"
             id="path2" />
        </g>
      </g>
    </g>
    <g
       inkscape:label="X"
       transform="translate(5.8814655,6.2094385)"
       id="g22"
       style="display:inline">
      <g
         fill="#000000"
         fill-opacity="1"
         id="g21"
         transform="matrix(0.352778,0,0,0.352778,-0.829866,-0.704894)">
        <g
           id="g20"
           transform="translate(1.993,11.795)">
          <path
             d="M 6.8125,-5.828125 5.46875,-8.96875 C 5.65625,-9.3125 6.078125,-9.359375 6.25,-9.375 c 0.09375,0 0.25,-0.015625 0.25,-0.265625 0,-0.15625 -0.125,-0.15625 -0.21875,-0.15625 -0.25,0 -0.53125,0.03125 -0.765625,0.03125 h -0.84375 c -0.875,0 -1.5,-0.03125 -1.515625,-0.03125 -0.109375,0 -0.265625,0 -0.265625,0.265625 0,0.15625 0.140625,0.15625 0.328125,0.15625 0.828125,0 0.890625,0.140625 1.03125,0.484375 L 5.953125,-4.90625 2.84375,-1.578125 C 2.328125,-1.015625 1.703125,-0.46875 0.640625,-0.421875 0.46875,-0.40625 0.359375,-0.40625 0.359375,-0.140625 0.359375,-0.09375 0.375,0 0.53125,0 0.734375,0 0.953125,-0.03125 1.140625,-0.03125 h 0.6875 C 2.28125,-0.03125 2.78125,0 3.234375,0 3.328125,0 3.5,0 3.5,-0.265625 3.5,-0.40625 3.40625,-0.421875 3.3125,-0.421875 3.03125,-0.4375 2.84375,-0.609375 2.84375,-0.828125 c 0,-0.25 0.171875,-0.421875 0.578125,-0.84375 L 4.703125,-3.0625 c 0.3125,-0.34375 1.078125,-1.171875 1.390625,-1.484375 l 1.515625,3.53125 c 0,0.03125 0.0625,0.171875 0.0625,0.1875 0,0.125 -0.3125,0.390625 -0.765625,0.40625 -0.09375,0 -0.25,0.015625 -0.25,0.28125 C 6.65625,0 6.796875,0 6.875,0 7.109375,0 7.40625,-0.03125 7.640625,-0.03125 H 9.21875 C 9.484375,-0.03125 9.75,0 10,0 c 0.09375,0 0.25,0 0.25,-0.265625 0,-0.15625 -0.140625,-0.15625 -0.265625,-0.15625 C 9.125,-0.4375 9.09375,-0.5 8.84375,-1.03125 L 6.953125,-5.484375 8.78125,-7.4375 C 8.921875,-7.578125 9.25,-7.9375 9.375,-8.078125 10,-8.71875 10.578125,-9.3125 11.734375,-9.375 c 0.140625,-0.015625 0.28125,-0.015625 0.28125,-0.265625 0,-0.15625 -0.125,-0.15625 -0.1875,-0.15625 -0.203125,0 -0.40625,0.03125 -0.609375,0.03125 H 10.5625 c -0.46875,0 -0.96875,-0.03125 -1.40625,-0.03125 -0.109375,0 -0.28125,0 -0.28125,0.265625 0,0.140625 0.109375,0.15625 0.1875,0.15625 0.234375,0.015625 0.46875,0.140625 0.46875,0.40625 v 0.03125 c -0.015625,0.109375 -0.046875,0.25 -0.203125,0.421875 z m 0,0"
             id="path19" />
        </g>
      </g>
    </g>
  </g>
</svg>
